<?xml version="1.0"?>
<svg version="1.1" xmlns="http://www.w3.org/2000/svg" width="400" height="200" style=""><path fill="#03ffea" d="M32.16,94.28q-6.16,0-10.34,4.455q-4.125,4.4-4.125,10.725l0,23.54l3.465,0l0-17.27l22.11,0l0,17.27l3.465,0l0-23.54q0-6.325-4.125-10.725q-4.29-4.455-10.45-4.455z M43.27,112.32l-22.11,0l0-2.86q0-4.73,3.19-8.195q3.245-3.52,7.81-3.52t7.92,3.52q3.19,3.465,3.19,8.195l0,2.86z M76.9762,94.5l-17.27,0l-3.41,0l0,38.665l3.41,0l0-19.36l17.27,0q4.18,0,6.93-2.75t2.75-6.875q0-3.74-2.75-6.655q-2.915-3.025-6.93-3.025z M76.9762,110.395l-17.27,0l0-12.485l17.27,0q2.53,0,4.455,1.815q1.815,1.925,1.815,4.455q0,2.585-1.815,4.4q-1.925,1.815-4.455,1.815z M106.0624,94.445l-8.415,0l-2.09,0l-1.375,0l0,38.555l1.375,0l2.09,0l8.415,0q8.03,0,13.75-5.61q5.885-5.775,5.885-14.025q0-7.81-5.885-13.42q-5.775-5.5-13.75-5.5z M106.0624,129.535l-8.415,0l0-31.515l8.415,0q6.875,0,11.55,4.51q4.62,4.51,4.62,10.835q0,6.875-4.62,11.495q-4.675,4.675-11.55,4.675z M133.4436,118.7l16.005,0l0-3.465l-16.005,0l0,3.465z M186.5098,133l0-3.465l-9.79,0q-6.82,0-11.44-4.62t-4.62-11.44q0-6.27,4.62-10.78t11.44-4.51l9.79,0l0-3.575l-9.79,0q-8.305,0-13.915,5.5q-5.61,5.445-5.61,13.365q0,8.415,5.61,13.915q5.5,5.61,13.915,5.61l9.79,0z M194.641,133.11l26.895,0l0-2.805l-23.485,0l0-35.805l-3.41,0l0,38.61z M242.9772,94.5q-6.215,0-10.67,4.455q-4.51,4.51-4.51,10.725l0,8.305q0,6.105,4.51,10.615t10.67,4.51q6.215,0,10.725-4.51q4.455-4.455,4.455-10.615l0-8.305q0-6.27-4.455-10.725t-10.725-4.455z M254.7472,109.68l0,8.305q0,5.005-3.52,8.415q-3.465,3.3-8.25,3.3t-8.195-3.3q-3.52-3.41-3.52-8.415l0-8.305q0-4.62,3.52-8.25q3.52-3.52,8.195-3.52q4.62,0,8.25,3.52q3.52,3.63,3.52,8.25z M296.9784,94.445l-3.465,0l0,23.485q0,5.06-3.52,8.47q-3.465,3.3-8.25,3.3q-5.225,0-8.415-3.3q-3.245-3.355-3.245-8.47l0-23.485l-3.52,0l0,23.485q0,6.27,4.29,10.67q4.345,4.51,10.89,4.51q6.105,0,10.725-4.51q4.51-4.4,4.51-10.67l0-23.485z M318.1996,94.445l-8.415,0l-2.09,0l-1.375,0l0,38.555l1.375,0l2.09,0l8.415,0q8.03,0,13.75-5.61q5.885-5.775,5.885-14.025q0-7.81-5.885-13.42q-5.775-5.5-13.75-5.5z M318.1996,129.535l-8.415,0l0-31.515l8.415,0q6.875,0,11.55,4.51q4.62,4.51,4.62,10.835q0,6.875-4.62,11.495q-4.675,4.675-11.55,4.675z"/><path fill="#" d=""/></svg>
