<?xml version="1.0"?>
<svg version="1.1" xmlns="http://www.w3.org/2000/svg" width="400" height="200" style=""><path fill="#03ffea" d="M55.865,128.325l0,4.675l-17.49,0l0-4.675l4.125-1.485l-1.32-4.015l-12.21,0l-1.375,3.96l4.29,1.54l0,4.675l-16.61,0l0-4.675l4.015-1.54l12.1-32.395l8.8-0.165l11.825,32.56z M39.365,116.94l-4.125-13.035l-4.345,13.035l8.47,0z M61.88805,133l0-4.675l4.125-1.65l0-25.85l-4.125-1.65l0-4.675l12.65-0.275l5.225,0c8.415,0,13.365,4.4,13.365,11.55c0,9.24-5.665,13.75-15.675,13.75l-2.915,0l0,7.15l4.125,1.65l0,4.675l-16.775,0z M74.53805,113.09l2.915,0c4.565,0,7.15-2.145,7.15-6.215c0-3.575-1.925-6.05-5.665-6.05l-4.4,0l0,12.265z M104.3761,126.675l0-25.85l-4.125-1.65l0-4.675l12.65-0.275l5.225,0c11,0,17.49,6.49,17.49,18.865s-7.15,19.91-18.315,19.91l-17.05,0l0-4.675z M112.9011,126.4l4.565,0c5.335,0,8.91-3.135,8.91-13.035c0-9.24-3.135-12.54-8.525-12.54l-4.95,0l0,25.575z M160.88915,114.575l0,6.875l-15.675,0l0-6.875l15.675,0z M196.4472,106.6l-1.265-5.28s-2.585-0.88-6.16-0.88c-5.775,0-9.075,4.29-9.075,13.475c0,8.91,3.575,12.65,9.35,12.65c5.5,0,10.45-3.85,10.45-3.85l3.025,4.95s-5.775,5.995-14.41,5.995c-11.165,0-17.6-6.71-17.6-19.47c0-12.925,7.26-20.625,18.535-20.625c6.655,0,12.815,2.585,12.815,2.585l-0.275,10.45l-5.39,0z M230.96025,126.4l1.21-6.05l5.225,0l0,12.65l-27.5,0l0-4.675l4.125-1.65l0-25.85l-4.125-1.65l0-4.675l16.775-0.275l0,4.95l-4.125,1.65l0,25.575l8.415,0z M262.9433,93.565c11,0,17.325,7.26,17.325,19.525c0,12.375-7.425,20.625-18.425,20.625s-17.05-6.875-17.05-19.8c0-12.65,6.985-20.35,18.15-20.35z M262.6683,100.44c-5.5,0-8.525,3.41-8.525,13.2c0,9.075,2.475,13.2,7.975,13.2s8.8-3.575,8.8-13.475c0-9.075-2.75-12.925-8.25-12.925z M301.63635,100.825l0,17.325c0,6.325,1.815,8.8,7.205,8.8c5.83,0,7.095-3.135,7.095-9.625l0-16.5l-4.29-1.65l0-4.675l16.94-0.275l0,4.95l-4.125,1.65l0,16.5c0,10.615-4.07,16.335-15.895,16.335c-11.055,0-15.455-4.895-15.455-15.51l0-17.325l-4.07-1.65l0-4.675l16.885-0.275l0,4.95z M340.6594,126.675l0-25.85l-4.125-1.65l0-4.675l12.65-0.275l5.225,0c11,0,17.49,6.49,17.49,18.865s-7.15,19.91-18.315,19.91l-17.05,0l0-4.675z M349.1844,126.4l4.565,0c5.335,0,8.91-3.135,8.91-13.035c0-9.24-3.135-12.54-8.525-12.54l-4.95,0l0,25.575z"/><path fill="#" d=""/></svg>
